<svg xmlns="http://www.w3.org/2000/svg" viewBox="0 0 484.7 116.5"><path d="M26.6 49.5v35.9H15.9V49.5h-3.8v-9.9h3.8V22c0-5.8 1-9.9 3-12.3 2.7-3.4 6.7-5 12-5 1.8 0 4.2.5 7.1 1.6v10.9l-1-.5c-2.3-1.2-4.1-1.7-5.6-1.7-1.8 0-3.1.7-3.8 2.1-.7 1.3-1 3.8-1 7.6v15.1h11.5v9.9H26.6v-.2zm14.6 12.7c0-6.6 2.4-12.3 7.1-16.8 4.8-4.7 10.5-6.9 17.3-6.9 6.8 0 12.6 2.3 17.4 6.9 4.7 4.7 7.1 10.4 7.1 17.1 0 6.8-2.4 12.6-7.1 17.3-4.8 4.6-10.6 6.9-17.5 6.9s-12.6-2.4-17.3-7.1c-4.6-4.5-7-10.4-7-17.4zm10.9.2c0 4.6 1.2 8.1 3.7 10.9 2.5 2.7 5.9 4 9.9 4 4.1 0 7.5-1.3 9.9-4 2.5-2.7 3.7-6.2 3.7-10.6s-1.2-8-3.7-10.6c-2.5-2.7-5.9-4-9.9-4s-7.3 1.3-9.8 4c-2.6 2.6-3.8 6.1-3.8 10.3zm43.2-.2c0-6.6 2.4-12.3 7.1-16.8 4.8-4.7 10.5-6.9 17.3-6.9 6.8 0 12.6 2.3 17.4 6.9 4.7 4.7 7.1 10.4 7.1 17.1 0 6.8-2.4 12.6-7.1 17.3-4.8 4.6-10.6 6.9-17.5 6.9-6.8 0-12.6-2.4-17.3-7.1-4.8-4.5-7-10.4-7-17.4zm10.7.2c0 4.6 1.2 8.1 3.7 10.9 2.5 2.7 5.9 4 9.9 4 4.1 0 7.5-1.3 9.9-4 2.5-2.7 3.7-6.2 3.7-10.6s-1.2-8-3.7-10.6c-2.5-2.7-5.9-4-9.9-4s-7.3 1.3-9.8 4c-2.5 2.6-3.8 6.1-3.8 10.3zm79.1-56.3h10.6v79.3h-10.6v-4.8c-4.1 4.1-8.9 6.1-14.1 6.1-6.3 0-11.5-2.3-15.6-6.8-4.1-4.7-6.2-10.5-6.2-17.5 0-6.8 2.1-12.5 6.2-17.1 4.1-4.6 9.2-6.9 15.4-6.9 5.3 0 10.1 2.2 14.3 6.6V6.1zM160 62.4c0 4.3 1.2 7.9 3.5 10.7 2.4 2.8 5.4 4.2 9.1 4.2 3.9 0 7.1-1.3 9.4-4 2.4-2.8 3.6-6.3 3.6-10.6s-1.2-7.8-3.6-10.6c-2.4-2.7-5.5-4.1-9.4-4.1-3.6 0-6.6 1.4-9.1 4.1-2.3 2.7-3.5 6.2-3.5 10.3zm73.7-15l-8.8 4.7c-1.4-2.8-3-4.2-5.1-4.2-1 0-1.8.3-2.5 1s-1.1 1.4-1.1 2.5c0 1.7 2.1 3.5 6.1 5.2 5.6 2.4 9.3 4.7 11.3 6.6 2 2.1 2.9 4.8 2.9 8.2 0 4.4-1.6 8.1-4.9 11.1-3.1 2.8-6.9 4.2-11.5 4.2-7.7 0-13.1-3.7-16.3-11.2l9-4.2c1.3 2.2 2.2 3.6 2.8 4.2 1.3 1.2 2.8 1.7 4.6 1.7 3.6 0 5.3-1.6 5.3-4.9 0-1.8-1.4-3.6-4.1-5.2-1.1-.5-2.2-1.1-3.1-1.5l-3.3-1.5c-3-1.5-5.2-3-6.5-4.6-1.6-2-2.4-4.3-2.4-7.4 0-4 1.4-7.3 4.1-9.9 2.8-2.6 6.2-3.9 10.1-3.9 6.2.1 10.5 3.2 13.4 9.1zm21.1 62.9h-10.5V39.6h10.5v5c4.1-4.1 8.9-6.3 14.2-6.3 6.3 0 11.5 2.3 15.5 6.9 4.1 4.6 6.2 10.4 6.2 17.5 0 6.8-2.1 12.6-6.2 17.1-4.1 4.6-9.2 6.8-15.4 6.8-5.3 0-10.1-2.2-14.3-6.4v30.1zM280 62.8c0-4.3-1.2-7.9-3.6-10.7-2.4-2.8-5.4-4.2-9.1-4.2-3.9 0-7.1 1.3-9.4 4-2.4 2.7-3.6 6.2-3.6 10.6 0 4.3 1.2 7.8 3.6 10.6 2.4 2.7 5.5 4.1 9.4 4.1 3.7 0 6.7-1.4 9.1-4.1 2.3-2.7 3.6-6.1 3.6-10.3zm18.1-23.2h10.5v4.1c2-2.1 3.7-3.5 5.2-4.2 1.5-.8 3.4-1.2 5.4-1.2 2.8 0 5.8.9 8.8 2.7l-4.9 9.7c-2-1.4-4-2.2-5.9-2.2-5.8 0-8.7 4.3-8.7 13v23.8H298V39.6zm33.9-19c0-1.8.7-3.5 2.1-4.8 1.3-1.3 2.9-2.1 4.9-2.1 2 0 3.6.7 4.9 2.1 1.3 1.3 2.1 2.9 2.1 4.9s-.7 3.6-2.1 4.9c-1.3 1.3-2.9 2.1-4.9 2.1-2 0-3.6-.7-4.9-2.1-1.5-1.4-2.1-3-2.1-5zm12.1 19v45.8h-10.5V39.6h10.5zm11.5 0h10.6v4.2c3.7-3.7 7.8-5.5 12.5-5.5 5.3 0 9.4 1.6 12.5 5 2.6 2.8 3.8 7.5 3.8 14v28h-10.6V59.8c0-4.6-.7-7.6-1.8-9.3-1.2-1.7-3.5-2.6-6.6-2.6-3.5 0-6 1.2-7.5 3.5-1.4 2.3-2.2 6.3-2.2 11.9v22h-10.6V39.6zm95.1 44.7c0 2.2-.1 4-.2 5.8-.1 1.6-.3 3-.5 4.3-.8 3.5-2.2 6.4-4.4 8.9-4.1 4.8-9.8 7.2-17 7.2-6.1 0-11.2-1.6-15.1-4.9-4.1-3.4-6.4-8-7.1-14H417c.4 2.3 1.1 4 2.1 5.2 2.2 2.8 5.4 4.2 9.6 4.2 7.7 0 11.6-4.8 11.6-14.2v-6.4c-4.2 4.3-9 6.4-14.5 6.4-6.2 0-11.3-2.3-15.3-6.7-4-4.6-6-10.3-6-17.1 0-6.6 1.8-12.4 5.6-17 4-5 9.3-7.4 15.8-7.4 5.8 0 10.5 2.2 14.3 6.4v-5.2h10.5v44.5zm-10.1-21.7c0-4.4-1.2-8-3.6-10.6-2.4-2.7-5.5-4.1-9.2-4.1-4 0-7.2 1.5-9.4 4.4-2.1 2.7-3.1 6.1-3.1 10.3 0 4.1 1.1 7.6 3.1 10.2 2.3 2.9 5.4 4.3 9.4 4.3s7.3-1.5 9.6-4.4c2.1-2.5 3.2-5.8 3.2-10.1zm35.1-38.2c0 2.4-.9 4.3-2.5 6.1-1.6 1.6-3.7 2.5-6 2.5-2.4 0-4.3-.9-6-2.5-1.6-1.6-2.5-3.7-2.5-6.1 0-1.3.2-2.5.8-3.6.5-1.2 1.3-2.2 2.3-2.9 1.6-1.3 3.4-2 5.3-2 1.3 0 2.5.2 3.6.8 1.5.7 2.7 1.7 3.6 3.1.8 1.4 1.4 3 1.4 4.6zm-8.6-7.3c-2 0-3.6.8-5 2.2-1.4 1.4-2.1 3.1-2.1 5.1 0 2.1.7 3.7 2.1 5.2 1.4 1.4 3 2.2 5 2.2s3.6-.8 5-2.2c1.4-1.4 2.1-3.1 2.1-5.2 0-1.1-.2-2.2-.9-3.4-.5-1.1-1.3-2-2.2-2.6-1.1-.8-2.5-1.3-4-1.3zm.9 8.2l3.1 4.1h-2.3l-2.9-3.9v3.9H464v-9.8h2c1.4 0 2.4.2 3 .8.7.5 1.1 1.3 1.1 2.2 0 .7-.2 1.2-.5 1.7s-.9.9-1.4 1h-.2zm-2.1-1.4h.3c1.3 0 2.1-.4 2.1-1.4 0-.9-.7-1.3-2-1.3h-.4v2.7z"/></svg>