<svg class="icon icon__brand-logo" viewBox="0 0 88 34" xmlns="http://www.w3.org/2000/svg"><path d="M26.525 20.849l1.225-7.975H11.377l.642-4.164h16.373L29.664.448 9.033.446C3.848.446 3.48 6.184 3.09 8.71L.061 28.404c-.415 2.707 1.337 4.898 3.914 4.898h20.633l1.274-8.29H9.51l.64-4.163h16.375zM81 .449H60.385L59.113 8.71H74.11l-3.787 24.591h10.292l4.303-27.956C85.334 2.643 83.58.448 81 .448zM55.35 33.301h10.07l3.144-20.427h-10.07L55.35 33.302zm1.055-24.59L57.677.447 37.047.446c-5.185 0-5.551 5.738-5.94 8.263l25.298.002zm-5.171 4.163h-20.74l-.5 3.28a4.19 4.19 0 00.87 3.27c.731.9 1.8 1.42 2.927 1.424h11.826l-.644 4.163H28.6l-1.277 8.29h20.631c2.577 0 5.005-2.191 5.422-4.898l1.669-10.836a4.19 4.19 0 00-.872-3.27 3.787 3.787 0 00-2.938-1.423zm33.92 15.892c-1.259 0-2.282 1.074-2.282 2.395s1.023 2.393 2.282 2.393c1.26 0 2.281-1.074 2.281-2.393 0-1.32-1.023-2.395-2.28-2.395zm0 4.259c-.976 0-1.778-.842-1.778-1.864 0-1.022.802-1.866 1.778-1.866.977 0 1.777.842 1.777 1.866s-.802 1.864-1.777 1.864zm1.037-2.244c0-.874-.692-.874-.88-.874h-1.007v2.425h.567v-.677h.252l.393.677h.629l-.472-.759c.252-.1.518-.331.518-.792zm-1.022.397h-.3v-.76h.3c.299 0 .425.083.425.364 0 .281-.126.396-.424.396z"/></svg>