<svg width="1000" height="280" fill="none" xmlns="http://www.w3.org/2000/svg" viewBox="0 0 100 28"><g clip-path="url(#a)" fill="#32C850"><path d="M12.522 13.739H8.907v6.924c0 1.526.825 1.938 2.062 1.938.605 0 1.155-.11 1.498-.193v4.699c-.22.11-1.154.522-2.955.522-3.849 0-6.213-2.267-6.213-5.963V13.74H0V8.793h.935c1.938 0 2.886-1.305 2.886-3.023V3.394h5.086v5.399h3.63v4.946h-.015zm12.055 9.26c2.282 0 4.22-1.786 4.22-4.919 0-3.2-1.91-4.877-4.22-4.877-2.282 0-4.11 1.676-4.11 4.877 0 3.05 1.911 4.919 4.11 4.919zm4.261 1.978c-.824 1.786-2.694 2.9-5.017 2.9-5.306 0-9.086-4.136-9.086-9.838 0-5.51 3.547-9.754 8.908-9.754 3.326 0 4.783 1.827 5.154 2.679V8.848h5.499l.04 18.52h-5.539l.042-2.198v-.193zm12.097 2.72l-3.89-3.393 13.54-15.648 4 3.393-13.65 15.649zm-.564-18.78c1.87 0 3.368 1.456 3.368 3.31 0 1.828-1.498 3.312-3.368 3.312-1.8 0-3.285-1.484-3.285-3.311a3.3 3.3 0 013.285-3.311zm18.914 18.726v-13.74H56.33V9.137h2.955V7.53c0-4.245 2.584-7.158 7.107-7.158 1.154 0 2.172.151 2.694.412V5.4c-.303-.068-.784-.192-1.677-.192-1.004 0-2.433.453-2.433 2.5v1.416h4.027v4.767h-4.04v13.753h-5.678zm13.031-.151h5.69V8.972h-5.69v18.52zM75.12 0c1.87 0 3.368 1.484 3.368 3.311S76.99 6.622 75.12 6.622c-1.8 0-3.285-1.484-3.285-3.31A3.299 3.299 0 0175.12 0zm15.162 21.955L84.22 28l-3.698-3.696 6.048-6.031-5.896-5.853 3.697-3.655 5.87 5.853 5.979-5.962 3.711 3.695-5.993 5.963 6.062 5.99L96.302 28l-6.02-6.045zm-35.657 2.13c0 1.827-1.498 3.31-3.367 3.31-1.801 0-3.286-1.483-3.286-3.31a3.29 3.29 0 013.286-3.312c1.87 0 3.367 1.443 3.367 3.311z"/></g><defs><clipPath id="a"><path fill="#fff" d="M0 0h100v28H0z"/></clipPath></defs></svg>