<svg version="1.0" xmlns="http://www.w3.org/2000/svg" width="133.333" height="133.333" viewBox="0 0 100 100"><path d="M78.5 10.5c-1.4 1.3-2.5 2.8-2.5 3.3s-1.4 1.5-3 2.2c-1.7.7-4.1 2.6-5.5 4.2l-2.4 2.9-5.3-1.6c-6.5-1.9-13-1.9-19.6 0-4.8 1.5-5.3 1.4-8.4-.5-1.8-1.1-4.3-2-5.5-2-1.3 0-2.3-.5-2.3-1 0-2.3-5-6-8-6-7 0-10.5 8.6-5.5 13.5 3.2 3.3 7.8 3.3 11.1-.1 2.1-2 3.2-2.4 5.5-1.9 4.3 1 4.3 1.9-.2 5.5-9.5 7.6-15.6 22.1-14.7 34.7C13.5 81.5 27.5 92 50 92c16.9 0 29.4-6.2 35.2-17.5 6.6-12.8.7-34.9-12.1-45.5-4-3.4-4.1-3.6-2.5-5.8 2.6-3.7 5.3-4.2 8-1.5 3.1 3.1 7.8 3 10.9-.2C91.1 20 92 17.9 92 16s-.9-4-2.5-5.5C88 8.9 85.9 8 84 8s-4 .9-5.5 2.5zm8.5 3.4c2 3.8-1.3 7.1-5.1 5.1-2.1-1.2-2.5-4-.7-5.8 1.8-1.8 4.6-1.4 5.8.7zm-68.6 3.7c2 1.9 2 2.9 0 4.8-1.8 1.9-2 1.9-4.5.6-2.1-1.2-2.5-4-.7-5.8 1.6-1.6 3.3-1.5 5.2.4zm44.1 9.8c14.3 6.5 23.9 25.3 20.6 40.2-3.2 14.3-20.6 22.7-40.6 19.6-22.2-3.5-31.4-18.8-23.6-39.3 5.5-14.4 19.8-24.6 32.9-23.5 2.8.3 7.7 1.6 10.7 3z"/><path d="M41.9 40.3c-10.6 7.1-10.6 20.3 0 27.4C51.7 74.3 66 66.2 66 54S51.7 33.7 41.9 40.3zm13.2 3.2c3.5 1.9 6.9 7 6.9 10.5 0 5.6-6.5 12-12.2 12C44.5 66 38 59.4 38 54s6.5-12 11.8-12c1.3 0 3.6.7 5.3 1.5z"/><path d="M45.7 49.8c-3.6 4-.9 10.2 4.5 10.2 2.5 0 5.8-2.7 5.8-4.7 0-.6-.7-1.4-1.6-1.7-.9-.3-1.4-1.5-1.2-2.8.2-1.9-.2-2.4-2.8-2.6-2-.2-3.6.3-4.7 1.6zM33.4 75.5c-.8 2.1.5 3.1 7.5 5.1 9.3 2.8 26.7-.3 25.9-4.5-.4-1.9-1.2-1.9-10 .5-6.4 1.8-7.1 1.8-13 .2-3.5-.9-7.1-1.9-8-2.3-1.2-.5-2-.1-2.4 1z"/></svg>